<?xml version="1.0" standalone="no"?>
<!DOCTYPE svg PUBLIC "-//W3C//DTD SVG 20010904//EN"
 "http://www.w3.org/TR/2001/REC-SVG-20010904/DTD/svg10.dtd">
<svg version="1.0" xmlns="http://www.w3.org/2000/svg"
 width="1024.000000pt" height="1024.000000pt" viewBox="0 0 1024.000000 1024.000000"
 preserveAspectRatio="xMidYMid meet">
<metadata>
Created by potrace 1.16, written by Peter Selinger 2001-2019
</metadata>
<g transform="translate(0.000000,1024.000000) scale(0.100000,-0.100000)"
fill="#000000" stroke="none">
<path d="M4916 9120 c-236 -27 -510 -86 -706 -150 -263 -87 -573 -241 -809
-403 -157 -107 -427 -353 -573 -522 -77 -88 -204 -266 -271 -380 -269 -456
-394 -833 -442 -1335 -24 -247 -18 -472 21 -745 63 -443 277 -969 547 -1345
226 -315 465 -550 777 -762 178 -121 277 -178 425 -246 457 -209 901 -302
1390 -289 253 7 341 16 550 57 380 76 711 204 1035 400 170 103 237 150 380
268 391 322 733 796 918 1270 158 404 244 950 206 1310 -59 564 -231 1075
-497 1472 -215 322 -444 567 -733 787 -242 184 -600 369 -901 467 -319 102
-588 144 -973 151 -146 2 -301 0 -344 -5z m454 -310 c334 -19 398 -28 650 -95
143 -38 435 -156 580 -235 322 -174 655 -463 877 -760 126 -169 185 -265 277
-455 92 -187 144 -328 194 -526 49 -188 69 -304 82 -474 14 -173 14 -194 1
-383 -52 -750 -394 -1441 -956 -1931 -138 -120 -273 -219 -428 -312 -366 -221
-712 -335 -1180 -388 -98 -11 -186 -25 -196 -31 -28 -15 -117 -12 -149 4 -15
7 -56 17 -92 21 -411 44 -651 105 -945 239 -365 167 -789 486 -1003 756 -41
52 -93 116 -114 143 -22 26 -66 89 -98 140 -236 376 -364 727 -426 1172 -29
200 -26 544 4 735 59 367 125 576 281 887 194 389 426 672 751 918 282 213
525 341 855 448 194 63 467 112 702 126 71 5 135 9 143 9 8 1 94 -3 190 -8z
m-3059 -2656 c14 -13 19 -31 19 -71 0 -47 -4 -59 -29 -84 -38 -38 -71 -37
-110 2 -43 42 -42 91 1 143 28 34 35 38 66 32 19 -3 43 -13 53 -22z m5963 -5
c38 -45 35 -92 -8 -135 -43 -43 -77 -44 -117 -5 -33 33 -37 67 -14 111 34 66
97 79 139 29z"/>
<path d="M5565 8630 c-16 -6 6 -21 120 -75 77 -37 159 -73 183 -80 41 -13 43
-12 62 13 12 14 18 32 16 39 -3 7 -1 13 4 13 6 0 10 4 10 10 0 14 -121 49
-248 71 -127 21 -119 21 -147 9z"/>
<path d="M4560 8588 c-123 -23 -188 -42 -318 -94 -227 -89 -379 -170 -359
-191 4 -3 55 -1 114 4 143 12 145 12 122 -37 -11 -22 -19 -55 -19 -75 0 -20
-7 -51 -14 -70 -8 -19 -12 -35 -9 -35 3 0 46 34 96 76 50 42 132 104 181 139
120 83 348 210 422 235 99 34 156 63 142 72 -28 17 -205 6 -358 -24z"/>
<path d="M4876 8414 c-65 -16 -213 -83 -309 -140 -203 -122 -470 -353 -534
-462 -25 -42 -25 -45 -10 -77 20 -41 59 -69 84 -60 10 4 41 34 69 68 58 72
104 105 194 143 135 57 368 174 399 199 17 15 49 57 71 94 64 109 83 131 135
159 54 29 68 58 39 79 -22 16 -62 15 -138 -3z"/>
<path d="M6355 8404 c-8 -9 -15 -29 -15 -45 0 -23 12 -38 65 -80 98 -77 103
-99 22 -99 -18 0 -49 -8 -70 -18 l-37 -17 90 -100 c105 -115 272 -340 350
-469 132 -219 296 -627 365 -906 14 -58 34 -165 44 -239 l17 -134 34 -11 c49
-16 80 -72 151 -271 33 -93 61 -170 62 -171 5 -6 142 27 153 37 11 9 22 72 40
229 14 120 69 210 129 210 25 0 41 -9 69 -40 20 -22 39 -40 42 -40 4 0 4 46 1
103 -11 162 -96 494 -188 725 -85 214 -248 482 -414 681 -166 199 -472 449
-723 590 -132 74 -166 86 -187 65z m1106 -1215 c45 -48 39 -108 -13 -135 -27
-14 -32 -14 -61 3 -17 10 -40 33 -50 51 -17 28 -17 37 -7 63 25 58 85 67 131
18z"/>
<path d="M5323 8325 c-40 -17 -52 -55 -29 -90 30 -46 121 -46 181 0 39 29 45
62 17 88 -23 21 -123 22 -169 2z"/>
<path d="M6160 8314 c0 -23 85 -121 120 -139 37 -19 43 -19 57 4 10 17 6 26
-30 67 -56 64 -147 106 -147 68z"/>
<path d="M3570 8112 c-185 -140 -324 -276 -441 -432 -103 -137 -133 -183 -232
-361 -95 -171 -142 -276 -200 -454 -58 -178 -61 -195 -43 -195 30 0 44 -30 51
-109 7 -83 19 -105 52 -99 14 2 24 27 44 105 14 55 38 121 52 146 35 59 178
184 287 250 73 45 94 53 150 57 63 5 66 6 82 40 133 278 231 445 297 504 28
25 27 33 -8 62 -18 15 -36 45 -46 77 -17 53 -45 87 -72 87 -8 0 -53 -40 -101
-90 -102 -105 -147 -140 -180 -140 -25 0 -25 0 -19 83 6 94 37 188 70 210 12
7 54 26 92 41 174 68 196 80 236 124 22 25 41 43 43 41 14 -16 26 -53 26 -78
0 -25 -8 -36 -38 -55 -68 -43 -69 -46 -16 -125 57 -86 72 -89 141 -26 79 70
164 254 147 319 -9 36 -74 89 -140 115 -31 11 -61 21 -67 20 -7 0 -82 -53
-167 -117z"/>
<path d="M5972 8208 c-7 -7 -12 -29 -12 -50 0 -31 7 -45 38 -76 44 -44 82 -60
82 -34 0 8 5 30 12 49 11 29 10 35 -10 56 -36 38 -97 68 -110 55z"/>
<path d="M5535 8041 c-55 -14 -93 -40 -142 -98 -62 -74 -137 -149 -192 -193
-41 -33 -44 -39 -49 -93 -5 -65 5 -83 52 -95 25 -7 34 -16 46 -54 30 -92 65
-101 137 -35 68 62 75 87 82 272 l6 160 61 3 c51 2 63 0 69 -15 12 -28 24
-378 25 -708 1 -382 5 -438 37 -476 27 -32 57 -38 67 -13 3 9 6 39 6 68 0 43
9 71 44 142 52 104 75 128 136 144 25 6 60 19 77 27 31 14 34 14 64 -12 18
-14 55 -38 83 -52 86 -43 110 -75 86 -113 -8 -12 -37 -15 -162 -15 -130 0
-159 -3 -190 -19 -92 -47 -57 -179 52 -193 23 -3 66 0 96 7 79 19 82 13 56
-113 -12 -57 -22 -113 -22 -124 0 -10 43 -79 95 -152 103 -144 186 -274 248
-390 l40 -73 43 5 c51 5 249 101 319 154 85 64 129 184 89 241 -8 12 -29 29
-45 38 -26 13 -38 14 -78 3 -26 -6 -60 -9 -75 -5 -39 10 -108 77 -140 136 -26
48 -27 52 -12 75 9 14 21 25 26 25 6 0 40 -27 75 -60 35 -33 66 -60 67 -60 2
0 66 -7 143 -15 77 -8 146 -15 154 -15 11 0 12 13 7 63 -19 176 -92 445 -178
662 -99 247 -176 393 -312 585 -82 117 -254 324 -287 348 -15 10 -30 9 -89 -7
-63 -17 -89 -30 -168 -87 -25 -19 -44 -13 -92 26 -30 24 -227 95 -285 103 -22
3 -53 2 -70 -2z m995 -923 c16 -63 24 -80 74 -147 50 -69 71 -121 62 -156 -7
-28 -32 -34 -95 -23 -57 10 -68 20 -76 71 -4 27 -22 62 -50 98 -80 105 -82
132 -12 173 63 39 84 35 97 -16z"/>
<path d="M4695 7924 c-88 -12 -93 -14 -105 -44 -16 -38 3 -69 56 -95 44 -21
86 -16 153 17 106 53 31 140 -104 122z"/>
<path d="M4886 7554 c-9 -8 -19 -33 -22 -54 -6 -37 -9 -40 -63 -58 -64 -21
-78 -41 -88 -122 l-6 -50 41 0 c39 0 43 3 77 56 20 31 38 54 41 51 3 -2 -1
-34 -7 -71 -7 -36 -10 -69 -6 -72 11 -12 112 -7 137 6 70 36 78 91 20 146 -42
40 -49 68 -31 117 20 52 -53 92 -93 51z"/>
<path d="M3674 7352 c-52 -77 -88 -144 -118 -216 l-16 -38 56 4 c67 6 79 17
94 97 6 31 20 92 30 136 11 45 20 84 20 88 0 20 -20 -1 -66 -71z"/>
<path d="M5365 7389 c-27 -5 -76 -11 -108 -15 -56 -5 -61 -8 -143 -85 -86 -82
-166 -129 -217 -129 -39 0 -43 -22 -13 -82 31 -62 33 -94 7 -108 -11 -5 -60
-10 -110 -10 -49 0 -92 -4 -95 -8 -3 -5 -11 -50 -17 -100 -15 -106 -8 -132 43
-158 43 -22 124 -22 166 0 19 10 45 37 60 64 40 70 111 135 186 172 l67 33 47
-45 c26 -25 63 -55 82 -68 19 -13 37 -25 39 -27 3 -2 -6 -14 -18 -27 -29 -31
-24 -58 13 -71 25 -9 31 -6 62 28 27 29 34 45 34 78 0 34 -6 45 -32 67 -78 65
-98 90 -98 121 0 17 4 31 8 31 5 0 37 -22 73 -50 35 -27 67 -50 72 -50 4 0 7
101 7 225 l0 225 -32 -1 c-18 -1 -55 -5 -83 -10z"/>
<path d="M4102 7180 c-12 -12 -22 -30 -22 -40 0 -55 93 -83 124 -38 22 31 20
45 -9 73 -29 30 -64 32 -93 5z"/>
<path d="M4142 6892 c-11 -9 -23 -29 -26 -44 -12 -54 60 -91 97 -50 22 24 21
51 -1 78 -24 30 -48 36 -70 16z"/>
<path d="M5064 6680 c-79 -11 -313 -85 -340 -108 -12 -9 -40 -45 -63 -79 -23
-35 -46 -63 -51 -63 -20 0 -131 -115 -169 -174 -63 -100 -76 -156 -76 -336 0
-181 10 -214 91 -298 l49 -49 295 -7 c162 -3 383 -6 490 -6 l195 0 -1 446 c-2
364 -4 448 -15 455 -8 5 -42 18 -76 29 -97 33 -113 50 -113 120 0 32 -4 61 -9
64 -17 11 -147 15 -207 6z"/>
<path d="M4080 6490 c-12 -12 -20 -33 -20 -55 0 -48 29 -75 79 -75 47 0 71 26
71 76 0 62 -86 98 -130 54z"/>
<path d="M5640 6004 l0 -446 128 7 c312 16 967 101 984 127 4 7 8 25 8 41 0
26 -2 27 -52 27 -29 0 -103 -7 -165 -17 l-112 -16 -42 28 c-22 16 -70 60 -105
99 -55 59 -80 101 -173 285 -60 119 -114 233 -121 254 -7 23 -21 42 -33 46
-12 5 -88 9 -169 9 l-148 1 0 -445z"/>
<path d="M2622 6353 c-39 -19 -72 -58 -72 -85 0 -17 5 -19 33 -14 107 20 110
20 159 -17 42 -33 47 -34 51 -16 8 31 -11 85 -42 118 -34 36 -76 40 -129 14z"/>
<path d="M2831 6204 c-53 -67 -31 -104 64 -104 70 0 85 10 85 57 0 45 -32 73
-86 73 -34 0 -47 -5 -63 -26z"/>
<path d="M2561 6068 c1 -82 15 -159 30 -169 8 -5 28 -9 46 -9 30 0 32 2 39 45
8 54 0 87 -28 126 -17 22 -63 49 -84 49 -2 0 -4 -19 -3 -42z"/>
<path d="M2831 5923 c-41 -20 -58 -50 -39 -69 10 -10 362 -114 385 -114 2 0 3
11 3 24 0 47 -111 113 -266 159 -46 13 -54 13 -83 0z"/>
<path d="M2584 5709 c4 -19 15 -84 26 -144 22 -131 113 -424 180 -585 71 -169
200 -396 308 -540 155 -206 412 -448 635 -598 81 -54 103 -63 131 -53 33 13
39 37 27 110 -13 79 -37 131 -97 211 -27 35 -65 90 -84 122 -19 31 -71 113
-114 180 -154 239 -253 448 -315 671 -41 146 -91 394 -91 453 0 24 -7 38 -22
48 -18 11 -393 113 -567 153 -23 6 -24 4 -17 -28z"/>
<path d="M7501 5701 c-47 -14 -87 -33 -89 -40 -13 -39 64 -151 104 -151 28 0
51 38 68 111 10 41 20 82 23 92 6 22 -5 21 -106 -12z"/>
<path d="M6335 5474 c-181 -23 -393 -46 -470 -49 -77 -3 -159 -8 -182 -11
l-43 -5 0 -397 c0 -377 -13 -731 -29 -797 -4 -16 -16 -34 -27 -40 -11 -5 -33
-20 -49 -33 -29 -23 -29 -23 -17 -79 6 -31 19 -67 28 -81 15 -23 20 -24 83
-20 144 11 256 78 337 200 26 40 58 86 71 101 38 46 87 137 119 216 22 58 44
91 96 147 105 113 103 110 100 312 -3 172 -3 173 25 223 20 38 54 72 135 136
91 72 208 194 208 217 0 9 -34 6 -385 -40z"/>
<path d="M4586 5409 c60 -66 164 -91 290 -70 67 12 154 47 154 62 0 13 -53 18
-264 23 l-199 6 19 -21z"/>
<path d="M5076 5397 c11 -7 51 -39 87 -71 l67 -60 0 -61 c0 -58 3 -67 65 -166
36 -57 68 -119 71 -137 10 -53 -2 -153 -25 -205 -13 -31 -21 -70 -21 -105 0
-80 81 -369 100 -357 20 12 49 98 59 174 12 95 14 399 4 759 l-6 242 -211 0
c-170 -1 -207 -3 -190 -13z"/>
<path d="M3384 5290 c20 -155 133 -466 235 -645 48 -84 162 -255 170 -255 10
0 51 115 62 177 6 32 26 106 45 165 24 76 34 126 34 171 0 102 -14 117 -216
217 -166 83 -218 115 -298 189 l-38 36 6 -55z"/>
<path d="M6551 4779 c-81 -70 -102 -98 -115 -154 -4 -16 -17 -49 -28 -74 -29
-65 -36 -156 -13 -181 34 -38 94 -15 147 56 56 76 148 345 134 397 -10 42 -35
34 -125 -44z"/>
<path d="M4740 4650 c-43 -43 -11 -129 53 -145 51 -13 104 41 92 94 -14 63
-102 94 -145 51z"/>
<path d="M5955 3553 c-48 -11 -155 -49 -214 -76 -55 -25 -62 -31 -46 -39 62
-35 295 55 295 113 0 9 -2 10 -35 2z"/>
<path d="M2022 4043 c-23 -9 -44 -64 -38 -99 8 -38 47 -74 81 -74 29 0 75 53
75 86 0 32 -25 80 -45 88 -19 7 -54 7 -73 -1z"/>
<path d="M8203 4039 c-58 -21 -72 -112 -24 -160 37 -37 62 -37 103 0 27 24 33
36 33 69 0 65 -57 111 -112 91z"/>
<path d="M7821 3684 c-12 -15 -21 -40 -21 -56 0 -37 48 -88 83 -88 31 0 77 51
77 85 0 13 -12 37 -26 54 -34 41 -83 43 -113 5z"/>
<path d="M1950 1965 l0 -615 139 0 139 0 6 31 c3 17 6 112 6 211 l0 179 71 -3
71 -3 81 -125 c44 -69 101 -161 127 -205 l46 -80 162 -3 c140 -2 162 0 162 13
0 8 -60 99 -134 203 -73 103 -141 201 -149 219 l-17 31 54 30 c68 39 129 109
158 181 17 43 22 76 22 146 0 79 -3 98 -29 150 -60 124 -199 224 -341 245 -38
5 -183 10 -321 10 l-253 0 0 -615z m570 329 c101 -59 108 -199 14 -261 -22
-14 -56 -19 -167 -23 l-139 -5 6 50 c3 28 6 99 6 159 l0 108 123 -3 c101 -3
128 -8 157 -25z"/>
<path d="M3060 1965 l0 -616 143 3 142 3 5 200 5 200 165 0 165 1 67 32 c97
47 170 118 215 210 34 68 38 83 38 156 0 116 -30 189 -113 278 -71 75 -151
121 -241 138 -29 5 -175 10 -322 10 l-269 0 0 -615z m566 334 c25 -11 53 -35
65 -55 45 -73 5 -196 -75 -229 -33 -14 -266 -25 -266 -12 0 4 0 77 0 162 l0
155 117 0 c98 0 124 -3 159 -21z"/>
<path d="M4130 1965 l0 -615 145 0 145 0 0 340 c0 187 3 340 8 340 8 0 16 -13
159 -250 52 -85 100 -158 106 -162 7 -4 37 -8 68 -8 l57 0 58 98 c82 139 195
312 202 312 4 0 7 -150 7 -332 l0 -333 146 -3 146 -3 7 78 c4 43 4 320 0 616
l-7 537 -143 0 -142 0 -53 -82 c-61 -96 -171 -295 -232 -420 -23 -49 -44 -88
-47 -88 -3 0 -29 44 -58 98 -48 90 -198 353 -256 450 l-25 42 -146 0 -145 0 0
-615z"/>
<path d="M6834 2573 c-28 -4 -32 -9 -38 -41 -3 -20 -6 -286 -6 -589 0 -544 0
-553 21 -574 16 -16 30 -19 67 -17 69 4 73 18 70 221 l-3 167 90 0 c50 0 141
5 204 10 92 7 125 15 177 39 160 75 260 261 233 433 -13 86 -69 198 -122 243
-52 44 -144 89 -215 104 -49 10 -405 13 -478 4z m508 -172 c105 -41 154 -127
146 -256 -12 -183 -130 -254 -421 -255 l-129 0 6 262 c4 143 9 265 13 271 3 5
69 7 167 5 135 -4 170 -8 218 -27z"/>
<path d="M7827 2522 c-9 -88 -21 -1094 -13 -1125 8 -33 38 -49 90 -49 63 1 66
10 66 214 l0 178 78 0 c42 0 133 5 201 10 159 12 235 44 316 131 103 112 140
230 115 363 -24 129 -107 231 -240 295 l-75 36 -266 3 -266 3 -6 -59z m492
-103 c68 -14 136 -60 172 -116 29 -46 30 -52 27 -138 -4 -110 -22 -152 -88
-200 -77 -56 -117 -66 -297 -72 l-163 -6 0 266 0 266 23 4 c47 9 278 7 326 -4z"/>
<path d="M5991 2552 c-15 -29 -87 -191 -161 -367 -136 -321 -209 -484 -293
-652 -47 -94 -83 -174 -79 -177 3 -3 61 -6 129 -6 119 0 124 1 133 23 5 12 29
72 54 132 l46 110 242 -2 243 -2 50 -108 c79 -171 54 -153 210 -153 74 0 135
2 135 5 0 2 -31 64 -70 137 -38 74 -116 241 -174 373 -187 432 -253 579 -285
643 l-31 62 -70 0 c-57 0 -71 -3 -79 -18z m124 -468 c22 -53 56 -133 76 -178
l37 -81 -79 -3 c-43 -2 -115 -2 -159 0 l-79 3 57 145 c55 138 90 210 102 210
3 0 23 -43 45 -96z"/>
</g>
</svg>
